<svg xmlns="http://www.w3.org/2000/svg" width="256" height="256" fill="none" viewBox="0 0 256 256">
<!-- SVG created with Arrow, by QuiverAI (https://quiver.ai) -->
  <path d="M133.95 8.68 Q128 5 122.04 8.68 L28.42 66.49 Q22.46 70.16 22.46 77.16 L22.46 175.66 Q22.46 182.66 28.33 186.47 L122 247.19 Q127.86 251 133.73 247.19 L227.39 186.47 Q233.26 182.66 233.26 175.66 L233.26 77.16 Q233.26 70.16 227.31 66.48 Z M129.14 13.3 L172.43 78.99 Q175.18 83.16 170.18 83.16 L84.6 83.16 Q79.6 83.16 82.36 78.99 L125.83 13.29 Q127.49 10.79 129.14 13.3 Z M33.47 173.83 L74.59 95.03 Q76.9 90.6 79.48 94.89 L122.49 166.49 Q125.06 170.77 120.07 171.08 L35.07 176.31 Q32.08 176.49 33.47 173.83 Z M132.89 166.69 L176.06 95.03 Q178.64 90.74 181 95.15 L223.01 173.59 Q224.43 176.23 221.44 176.06 L135.3 171.25 Q130.31 170.97 132.89 166.69 Z" fill="#000"/>
</svg>